<svg width="367" height="390" viewBox="0 0 367 390" fill="none" xmlns="http://www.w3.org/2000/svg">
<g id="Group 14">
<g id="Group 10">
<g id="box-1" opacity="0.2">
<rect id="Rectangle 2" x="0.866025" width="119" height="119" transform="matrix(0.866025 -0.5 0.866025 0.5 85.116 270.433)" fill="#141414" stroke="white"/>
<rect id="Rectangle 3" x="0.433013" y="0.75" width="119" height="59" transform="matrix(0.866025 0.5 0 1 85.058 269.783)" fill="#141414" stroke="white"/>
<rect id="Rectangle 4" x="0.433013" y="0.25" width="119" height="59" transform="matrix(0.866025 -0.5 0 1 189.058 330.07)" fill="#141414" stroke="white"/>
</g>
<g id="box-1_2" opacity="0.4">
<rect id="Rectangle 2_2" x="0.866025" width="119" height="119" transform="matrix(0.866025 -0.5 0.866025 0.5 85.116 210.433)" fill="#141414" stroke="white"/>
<rect id="Rectangle 3_2" x="0.433013" y="0.75" width="119" height="59" transform="matrix(0.866025 0.5 0 1 85.058 209.783)" fill="#141414" stroke="white"/>
<rect id="Rectangle 4_2" x="0.433013" y="0.25" width="119" height="59" transform="matrix(0.866025 -0.5 0 1 189.058 270.07)" fill="#141414" stroke="white"/>
</g>
<g id="box-2">
<rect id="Rectangle 2_3" x="0.866025" width="119" height="119" transform="matrix(0.866025 -0.5 0.866025 0.5 85.116 150.433)" fill="#141414" stroke="white"/>
<rect id="Rectangle 3_3" x="0.433013" y="0.75" width="119" height="59" transform="matrix(0.866025 0.5 0 1 85.058 149.783)" fill="#141414" stroke="white"/>
<rect id="Rectangle 4_3" x="0.433013" y="0.25" width="119" height="59" transform="matrix(0.866025 -0.5 0 1 189.058 210.07)" fill="#141414" stroke="white"/>
</g>
<g id="box-3">
<rect id="Rectangle 2_4" x="0.866025" width="119" height="119" transform="matrix(0.866025 -0.5 0.866025 0.5 85.116 60.433)" fill="#141414" stroke="#FFC95C" stroke-dasharray="2 2"/>
<rect id="Rectangle 3_4" x="0.433013" y="0.75" width="119" height="59" transform="matrix(0.866025 0.5 0 1 85.058 59.7835)" fill="#141414" stroke="#FFC95C" stroke-dasharray="2 2"/>
<rect id="Rectangle 4_4" x="0.433013" y="0.25" width="119" height="59" transform="matrix(0.866025 -0.5 0 1 189.058 120.07)" fill="#141414" stroke="#FFC95C" stroke-dasharray="2 2"/>
</g>
</g>
<g id="Group 12">
<circle id="Ellipse 2" cx="12" cy="12" r="11.5" transform="matrix(0.866025 0.5 -0.866025 0.5 345.785 48)" fill="#141414" stroke="#FFC95C"/>
<circle id="Ellipse 1" cx="12" cy="12" r="11.5" transform="matrix(0.866025 0.5 -0.866025 0.5 345.785 47)" fill="#141414" stroke="#FFC95C"/>
<g id="PUSD" filter="url(#filter0_d_51_67)">
<path d="M337.324 56.2642L341.103 54.0824L342.38 54.8196C342.676 54.9908 342.865 55.1616 342.946 55.332C343.03 55.5025 343.027 55.6662 342.937 55.8232C342.847 55.9801 342.691 56.1229 342.468 56.2514C342.245 56.38 341.998 56.4705 341.725 56.5231C341.453 56.5763 341.168 56.5799 340.872 56.5337C340.577 56.4869 340.282 56.3786 339.988 56.2088L339.073 55.6804L339.479 55.446L340.379 55.9659C340.582 56.0831 340.78 56.157 340.974 56.1875C341.167 56.218 341.351 56.2148 341.525 56.1779C341.702 56.141 341.867 56.0788 342.018 55.9915C342.169 55.9041 342.276 55.8097 342.339 55.7081C342.403 55.6072 342.407 55.5014 342.35 55.3906C342.295 55.2791 342.164 55.1641 341.959 55.0455L341.154 54.581L337.781 56.5284L337.324 56.2642ZM346.881 57.4185L347.339 57.6827L344.836 59.1273C344.578 59.2765 344.287 59.3745 343.962 59.4213C343.64 59.4682 343.31 59.4618 342.973 59.4022C342.637 59.3418 342.321 59.226 342.024 59.0549C341.728 58.8837 341.527 58.7012 341.423 58.5073C341.319 58.3127 341.308 58.122 341.388 57.9352C341.47 57.7484 341.641 57.5804 341.899 57.4313L344.401 55.9867L344.859 56.2509L342.393 57.6742C342.209 57.7807 342.085 57.899 342.023 58.0289C341.961 58.1582 341.964 58.29 342.032 58.4242C342.102 58.5584 342.242 58.6863 342.452 58.8077C342.663 58.9292 342.884 59.0101 343.117 59.0506C343.35 59.0904 343.579 59.0922 343.801 59.0559C344.026 59.0197 344.231 58.9483 344.416 58.8418L346.881 57.4185ZM349.374 59.949C349.539 59.8282 349.595 59.6926 349.54 59.542C349.486 59.3914 349.345 59.2501 349.116 59.118C348.949 59.0214 348.775 58.9525 348.596 58.9113C348.417 58.8708 348.246 58.8577 348.081 58.8719C347.917 58.8868 347.775 58.9291 347.655 58.9987C347.554 59.0569 347.491 59.1208 347.466 59.1904C347.444 59.26 347.447 59.3307 347.476 59.4024C347.505 59.4735 347.546 59.542 347.599 59.608C347.653 59.6734 347.706 59.7316 347.758 59.7828L348.038 60.064C348.111 60.1357 348.185 60.2195 348.26 60.3154C348.336 60.412 348.39 60.515 348.422 60.6244C348.457 60.7338 348.449 60.8445 348.4 60.9568C348.351 61.069 348.238 61.1762 348.061 61.2785C347.856 61.3964 347.618 61.472 347.346 61.5054C347.076 61.5395 346.79 61.5257 346.488 61.4639C346.188 61.4028 345.893 61.2884 345.603 61.1208C345.332 60.9646 345.141 60.8041 345.031 60.6393C344.921 60.4752 344.888 60.3154 344.931 60.1599C344.975 60.0051 345.093 59.8637 345.285 59.7359L345.758 60.0086C345.627 60.0981 345.557 60.194 345.547 60.2963C345.54 60.3985 345.578 60.5001 345.662 60.6009C345.748 60.7018 345.866 60.7955 346.016 60.8822C346.191 60.983 346.376 61.0573 346.571 61.1048C346.768 61.1517 346.958 61.1691 347.142 61.157C347.326 61.1443 347.487 61.0981 347.625 61.0186C347.751 60.9461 347.818 60.8669 347.826 60.781C347.835 60.695 347.807 60.6048 347.741 60.5104C347.676 60.4159 347.596 60.3197 347.5 60.2217L347.167 59.8765C346.957 59.657 346.845 59.4521 346.83 59.2618C346.815 59.0715 346.935 58.9028 347.19 58.7558C347.401 58.6336 347.643 58.5601 347.915 58.5352C348.189 58.5104 348.467 58.5289 348.749 58.5906C349.033 58.6524 349.296 58.7529 349.537 58.8921C349.78 59.0328 349.953 59.183 350.055 59.3428C350.159 59.5019 350.191 59.6567 350.151 59.8073C350.113 59.9585 350.002 60.091 349.817 60.2046L349.374 59.949ZM348.953 62.9785L347.787 62.3052L351.566 60.1234L352.784 60.8265C353.15 61.0382 353.388 61.263 353.498 61.5009C353.609 61.7381 353.593 61.9782 353.45 62.2211C353.309 62.4632 353.042 62.6973 352.651 62.9231C352.257 63.1504 351.848 63.3056 351.424 63.3887C351.001 63.4711 350.579 63.4789 350.158 63.4121C349.739 63.3446 349.337 63.2001 348.953 62.9785ZM348.651 62.335L349.33 62.7271C349.642 62.9075 349.961 63.0222 350.287 63.0712C350.613 63.1202 350.938 63.1096 351.262 63.0392C351.585 62.9689 351.901 62.845 352.208 62.6674C352.513 62.4913 352.726 62.3109 352.847 62.1262C352.968 61.9409 352.989 61.7569 352.909 61.5744C352.831 61.3912 352.644 61.2143 352.348 61.0439L351.618 60.622L348.651 62.335Z" fill="#FFC95C"/>
</g>
</g>
<g id="Group 13">
<circle id="Ellipse 2_2" cx="12" cy="12" r="11.5" transform="matrix(0.857167 0.515038 -0.87462 0.48481 343.2 43.3626)" fill="#141414" stroke="#FFC95C"/>
<circle id="Ellipse 1_2" cx="12" cy="12" r="11.5" transform="matrix(0.857167 0.515038 -0.87462 0.48481 343.218 42.3628)" fill="#141414" stroke="#FFC95C"/>
<g id="PUSD_2" filter="url(#filter1_d_51_67)">
<path d="M338.869 59.5967L335.09 57.4149L336.367 56.6777C336.663 56.5065 336.959 56.3975 337.254 56.3506C337.549 56.3023 337.833 56.3041 338.105 56.3559C338.377 56.4078 338.624 56.498 338.847 56.6265C339.069 56.7551 339.226 56.8982 339.317 57.0559C339.409 57.2128 339.416 57.3769 339.336 57.548C339.254 57.7185 339.067 57.8886 338.773 58.0583L337.858 58.5868L337.452 58.3524L338.352 57.8325C338.555 57.7153 338.683 57.601 338.736 57.4895C338.789 57.3779 338.783 57.2718 338.719 57.1709C338.655 57.0686 338.548 56.9738 338.396 56.8865C338.245 56.7991 338.081 56.7373 337.906 56.7011C337.731 56.6642 337.548 56.662 337.356 56.6947C337.163 56.7267 336.963 56.802 336.758 56.9206L335.953 57.385L339.326 59.3325L338.869 59.5967ZM340.868 54.0788L341.326 53.8146L343.828 55.2592C344.086 55.4083 344.256 55.5766 344.337 55.7641C344.418 55.9502 344.407 56.1406 344.304 56.3352C344.199 56.529 343.999 56.7116 343.702 56.8827C343.406 57.0539 343.09 57.1697 342.754 57.23C342.417 57.2897 342.086 57.2964 341.763 57.2503C341.439 57.2027 341.149 57.1043 340.89 56.9552L338.388 55.5106L338.846 55.2464L341.311 56.6697C341.495 56.7762 341.7 56.8476 341.925 56.8838C342.149 56.9193 342.377 56.9175 342.61 56.8785C342.842 56.838 343.064 56.757 343.274 56.6356C343.485 56.5141 343.625 56.3863 343.695 56.2521C343.764 56.1171 343.767 55.9854 343.704 55.8568C343.641 55.7268 343.518 55.6086 343.333 55.5021L340.868 54.0788ZM345.251 52.6392C345.042 52.5441 344.807 52.5121 344.546 52.5433C344.285 52.5746 344.04 52.6563 343.812 52.7884C343.644 52.885 343.525 52.9851 343.454 53.0888C343.384 53.1918 343.361 53.2909 343.385 53.386C343.411 53.4805 343.484 53.5625 343.605 53.6321C343.706 53.6904 343.817 53.7266 343.937 53.7408C344.058 53.7536 344.18 53.7518 344.304 53.7355C344.427 53.7184 344.546 53.6946 344.66 53.6641C344.774 53.6328 344.874 53.6023 344.963 53.5725L345.45 53.4105C345.574 53.3686 345.72 53.326 345.886 53.2827C346.053 53.2387 346.231 53.2074 346.421 53.1889C346.61 53.1691 346.802 53.1733 346.996 53.2017C347.191 53.2301 347.377 53.2955 347.554 53.3977C347.758 53.5156 347.889 53.6531 347.947 53.81C348.006 53.9663 347.982 54.1314 347.875 54.3054C347.769 54.4787 347.571 54.6492 347.281 54.8168C347.01 54.973 346.732 55.0831 346.447 55.147C346.162 55.2102 345.886 55.2294 345.616 55.2046C345.348 55.179 345.103 55.1108 344.882 55L345.354 54.7273C345.509 54.8026 345.675 54.8431 345.852 54.8487C346.03 54.853 346.206 54.831 346.38 54.7827C346.555 54.733 346.717 54.6648 346.867 54.5781C347.042 54.4773 347.171 54.3704 347.253 54.2575C347.334 54.1438 347.364 54.0341 347.343 53.9283C347.321 53.8217 347.241 53.7287 347.104 53.6492C346.978 53.5767 346.841 53.538 346.692 53.533C346.543 53.5281 346.387 53.5444 346.223 53.582C346.06 53.6197 345.893 53.6662 345.723 53.7216L345.125 53.9134C344.745 54.0348 344.39 54.0998 344.061 54.1083C343.731 54.1168 343.439 54.0476 343.184 53.9006C342.973 53.7784 342.845 53.6389 342.802 53.4819C342.759 53.3235 342.791 53.163 342.898 53.0004C343.005 52.8363 343.179 52.6847 343.42 52.5455C343.664 52.4048 343.924 52.3051 344.201 52.2461C344.477 52.1865 344.745 52.168 345.005 52.1907C345.268 52.2127 345.497 52.277 345.694 52.3835L345.251 52.6392ZM350.498 52.8824L349.332 53.5557L345.553 51.3739L346.771 50.6707C347.137 50.4591 347.527 50.3217 347.939 50.2585C348.35 50.1945 348.766 50.2038 349.186 50.2861C349.606 50.3678 350.011 50.5216 350.402 50.7474C350.796 50.9747 351.065 51.2109 351.209 51.4559C351.351 51.7002 351.365 51.9438 351.249 52.1867C351.132 52.4289 350.882 52.6608 350.498 52.8824ZM349.384 53.0571L350.063 52.6651C350.375 52.4847 350.574 52.3004 350.659 52.1121C350.744 51.9239 350.725 51.7364 350.603 51.5496C350.482 51.3629 350.267 51.1807 349.959 51.0031C349.654 50.827 349.342 50.7041 349.022 50.6345C348.701 50.5642 348.382 50.5521 348.066 50.5983C347.749 50.6437 347.443 50.7517 347.147 50.9222L346.417 51.344L349.384 53.0571Z" fill="#FFC95C"/>
</g>
</g>
<path id="Line 1" d="M85 89.5L32.0007 89.5L32.0007 76" stroke="#FFC95C" stroke-opacity="0.5" stroke-dasharray="2 2"/>
<path id="Line 2" d="M293.001 89.5L346 89.5L346 76" stroke="#FFC95C" stroke-opacity="0.5" stroke-dasharray="2 2"/>
<path id="AUXILIARY DATA" d="M1.36115 67H0.622514L2.75888 61.1818H3.48615L5.62251 67H4.88388L3.14524 62.1023H3.09979L1.36115 67ZM1.63388 64.7273H4.61115V65.3523H1.63388V64.7273ZM10.3469 61.1818H11.0515V65.0341C11.0515 65.4318 10.9577 65.7869 10.7702 66.0994C10.5846 66.41 10.3223 66.6553 9.98331 66.8352C9.64429 67.0133 9.24657 67.1023 8.79013 67.1023C8.33369 67.1023 7.93596 67.0133 7.59695 66.8352C7.25793 66.6553 6.99467 66.41 6.80717 66.0994C6.62157 65.7869 6.52876 65.4318 6.52876 65.0341V61.1818H7.23331V64.9773C7.23331 65.2614 7.29581 65.5142 7.42081 65.7358C7.54581 65.9555 7.72384 66.1288 7.9549 66.2557C8.18786 66.3807 8.46626 66.4432 8.79013 66.4432C9.11399 66.4432 9.3924 66.3807 9.62536 66.2557C9.85831 66.1288 10.0363 65.9555 10.1594 65.7358C10.2844 65.5142 10.3469 65.2614 10.3469 64.9773V61.1818ZM12.7994 61.1818L14.2994 63.6023H14.3448L15.8448 61.1818H16.6744L14.8448 64.0909L16.6744 67H15.8448L14.3448 64.625H14.2994L12.7994 67H11.9698L13.8448 64.0909L11.9698 61.1818H12.7994ZM18.2958 61.1818V67H17.5913V61.1818H18.2958ZM19.7085 67V61.1818H20.413V66.375H23.1175V67H19.7085ZM24.913 61.1818V67H24.2085V61.1818H24.913ZM26.5643 67H25.8256L27.962 61.1818H28.6893L30.8256 67H30.087L28.3484 62.1023H28.3029L26.5643 67ZM26.837 64.7273H29.8143V65.3523H26.837V64.7273ZM31.7319 67V61.1818H33.6978C34.1523 61.1818 34.5254 61.2595 34.8171 61.4148C35.1088 61.5682 35.3247 61.7794 35.4648 62.0483C35.605 62.3172 35.6751 62.6231 35.6751 62.9659C35.6751 63.3087 35.605 63.6127 35.4648 63.8778C35.3247 64.143 35.1097 64.3513 34.82 64.5028C34.5302 64.6525 34.1599 64.7273 33.7092 64.7273H32.1183V64.0909H33.6864C33.997 64.0909 34.247 64.0455 34.4364 63.9545C34.6277 63.8636 34.766 63.7348 34.8512 63.5682C34.9383 63.3996 34.9819 63.1989 34.9819 62.9659C34.9819 62.733 34.9383 62.5294 34.8512 62.3551C34.7641 62.1809 34.6249 62.0464 34.4336 61.9517C34.2423 61.8551 33.9895 61.8068 33.6751 61.8068H32.4364V67H31.7319ZM34.4705 64.3864L35.9023 67H35.0842L33.6751 64.3864H34.4705ZM36.1538 61.1818H36.9606L38.5742 63.8977H38.6424L40.256 61.1818H41.0629L38.9606 64.6023V67H38.256V64.6023L36.1538 61.1818ZM46.0195 67H44.2241V61.1818H46.0991C46.6635 61.1818 47.1464 61.2983 47.5479 61.5312C47.9495 61.7623 48.2572 62.0947 48.4712 62.5284C48.6853 62.9602 48.7923 63.4773 48.7923 64.0795C48.7923 64.6856 48.6843 65.2074 48.4684 65.6449C48.2525 66.0805 47.9381 66.4157 47.5252 66.6506C47.1123 66.8835 46.6104 67 46.0195 67ZM44.9286 66.375H45.9741C46.4551 66.375 46.8538 66.2822 47.1701 66.0966C47.4864 65.911 47.7222 65.6468 47.8775 65.304C48.0328 64.9612 48.1104 64.553 48.1104 64.0795C48.1104 63.6098 48.0337 63.2055 47.8803 62.8665C47.7269 62.5256 47.4978 62.2642 47.1928 62.0824C46.8879 61.8987 46.5082 61.8068 46.0536 61.8068H44.9286V66.375ZM49.9393 67H49.2006L51.337 61.1818H52.0643L54.2006 67H53.462L51.7234 62.1023H51.6779L49.9393 67ZM50.212 64.7273H53.1893V65.3523H50.212V64.7273ZM54.109 61.8068V61.1818H58.4727V61.8068H56.6431V67H55.9386V61.8068H54.109ZM59.119 67H58.3803L60.5167 61.1818H61.244L63.3803 67H62.6417L60.9031 62.1023H60.8576L59.119 67ZM59.3917 64.7273H62.369V65.3523H59.3917V64.7273Z" fill="#FFC95C"/>
<path id="STATEMENT" d="M158.404 41.5824C158.789 41.3007 158.918 40.9841 158.792 40.6328C158.665 40.2815 158.335 39.9517 157.801 39.6435C157.411 39.4181 157.006 39.2573 156.587 39.1612C156.171 39.0668 155.771 39.0361 155.386 39.0692C155.004 39.104 154.673 39.2027 154.391 39.3651C154.156 39.5009 154.01 39.6501 153.952 39.8125C153.901 39.9749 153.908 40.1398 153.974 40.3072C154.043 40.4729 154.139 40.6328 154.262 40.7869C154.389 40.9394 154.512 41.0753 154.633 41.1946L155.287 41.8509C155.456 42.0182 155.629 42.2138 155.804 42.4375C155.982 42.6629 156.108 42.9032 156.183 43.1584C156.263 43.4136 156.246 43.6721 156.131 43.9339C156.016 44.1958 155.752 44.446 155.339 44.6847C154.862 44.9598 154.307 45.1362 153.672 45.2141C153.041 45.2937 152.374 45.2614 151.67 45.1172C150.97 44.9747 150.281 44.7079 149.604 44.3168C148.972 43.9522 148.527 43.5777 148.269 43.1932C148.013 42.8104 147.936 42.4375 148.036 42.0746C148.14 41.7133 148.415 41.3835 148.863 41.0852L149.965 41.7216C149.661 41.9304 149.497 42.1541 149.474 42.3928C149.457 42.6314 149.546 42.8684 149.741 43.1037C149.942 43.339 150.218 43.5578 150.568 43.7599C150.976 43.9953 151.408 44.1684 151.864 44.2795C152.323 44.3888 152.767 44.4295 153.194 44.4013C153.625 44.3714 154.001 44.2637 154.323 44.0781C154.615 43.9091 154.772 43.7243 154.792 43.5238C154.812 43.3233 154.746 43.1128 154.594 42.8924C154.442 42.672 154.254 42.4474 154.03 42.2188L153.255 41.4134C152.764 40.9013 152.501 40.4232 152.467 39.979C152.432 39.5349 152.712 39.1413 153.306 38.7983C153.8 38.5133 154.364 38.3417 154.998 38.2837C155.639 38.2257 156.287 38.2688 156.945 38.413C157.608 38.5572 158.22 38.7917 158.783 39.1165C159.351 39.4446 159.755 39.7951 159.993 40.168C160.234 40.5392 160.309 40.9004 160.217 41.2518C160.128 41.6048 159.868 41.9138 159.437 42.179L158.404 41.5824ZM162.089 42.2579L163.036 41.711L169.649 45.5292L168.702 46.0761L165.929 44.4752L158.059 49.0193L156.991 48.4028L164.861 43.8588L162.089 42.2579ZM161.811 51.1856L160.691 50.5393L172.747 47.3177L173.849 47.9541L168.269 54.9143L167.15 54.268L171.937 48.4612L171.869 48.4214L161.811 51.1856ZM165.669 49.4356L170.181 52.0407L169.234 52.5876L164.721 49.9825L165.669 49.4356ZM176.001 50.2901L176.948 49.7433L183.561 53.5614L182.614 54.1083L179.841 52.5075L171.971 57.0515L170.903 56.435L178.774 51.891L176.001 50.2901ZM176.392 59.6038L185.209 54.5129L190.531 57.5853L189.584 58.1322L185.33 55.6762L182.35 57.3964L186.329 59.6933L185.381 60.2401L181.403 57.9433L178.407 59.6734L182.729 62.1691L181.782 62.716L176.392 59.6038ZM192.455 58.6965L193.73 59.4323L189.407 65.3882L189.51 65.4479L199.827 62.9521L201.101 63.6879L192.283 68.7789L191.284 68.2021L197.984 64.3343L197.898 64.2845L188.443 66.5615L187.478 66.0047L191.422 60.5459L191.336 60.4962L184.637 64.3641L183.638 63.7874L192.455 58.6965ZM194.424 70.0149L203.242 64.924L208.564 67.9964L207.616 68.5433L203.362 66.0874L200.383 67.8075L204.361 70.1044L203.414 70.6513L199.436 68.3544L196.439 70.0845L200.762 72.5803L199.815 73.1271L194.424 70.0149ZM217.48 73.1445L208.663 78.2354L207.629 77.6388L209.748 70.8675L209.661 70.8178L202.738 74.815L201.67 74.1985L210.488 69.1076L211.521 69.7042L209.403 76.4954L209.489 76.5451L216.43 72.538L217.48 73.1445ZM218.187 74.6466L219.135 74.0997L225.748 77.9179L224.801 78.4648L222.028 76.8639L214.157 81.4079L213.09 80.7915L220.96 76.2474L218.187 74.6466Z" fill="#FFC95C"/>
</g>
<defs>
<filter id="filter0_d_51_67" x="333.257" y="54.0526" width="25.3276" height="18.0041" filterUnits="userSpaceOnUse" color-interpolation-filters="sRGB">
<feFlood flood-opacity="0" result="BackgroundImageFix"/>
<feColorMatrix in="SourceAlpha" type="matrix" values="0 0 0 0 0 0 0 0 0 0 0 0 0 0 0 0 0 0 127 0" result="hardAlpha"/>
<feOffset dy="4"/>
<feGaussianBlur stdDeviation="2"/>
<feComposite in2="hardAlpha" operator="out"/>
<feColorMatrix type="matrix" values="0 0 0 0 0 0 0 0 0 0 0 0 0 0 0 0 0 0 0.25 0"/>
<feBlend mode="normal" in2="BackgroundImageFix" result="effect1_dropShadow_51_67"/>
<feBlend mode="normal" in="SourceGraphic" in2="effect1_dropShadow_51_67" result="shape"/>
</filter>
<filter id="filter1_d_51_67" x="331.038" y="49.631" width="25.3276" height="18.0041" filterUnits="userSpaceOnUse" color-interpolation-filters="sRGB">
<feFlood flood-opacity="0" result="BackgroundImageFix"/>
<feColorMatrix in="SourceAlpha" type="matrix" values="0 0 0 0 0 0 0 0 0 0 0 0 0 0 0 0 0 0 127 0" result="hardAlpha"/>
<feOffset dy="4"/>
<feGaussianBlur stdDeviation="2"/>
<feComposite in2="hardAlpha" operator="out"/>
<feColorMatrix type="matrix" values="0 0 0 0 0 0 0 0 0 0 0 0 0 0 0 0 0 0 0.25 0"/>
<feBlend mode="normal" in2="BackgroundImageFix" result="effect1_dropShadow_51_67"/>
<feBlend mode="normal" in="SourceGraphic" in2="effect1_dropShadow_51_67" result="shape"/>
</filter>
</defs>
</svg>
